<svg width="94" height="94" viewBox="0 0 94 94" fill="none" xmlns="http://www.w3.org/2000/svg">
<circle cx="47" cy="47" r="47" fill="#F10027"/>
<path d="M18.4529 68.9096C18.7155 67.7955 18.8747 66.6292 19.2587 65.5769C20.8 61.3471 23.2377 57.8306 25.7816 54.4157C30.1531 48.5475 35.0428 43.3384 40.2406 38.5271C40.3871 38.4089 40.5384 38.2994 40.6941 38.1992C41.312 39.1263 41.9004 40.0362 42.5132 40.9219C43.2266 41.953 43.6995 42.012 44.4266 41.0313C47.0199 37.545 50.1419 34.6671 53.6297 32.548C54.4994 32.013 55.2599 31.3911 55.5663 30.1154C55.7871 29.1955 56.5065 29.0033 57.2201 29.4971C57.8987 29.967 58.5493 30.4963 59.1976 31.0245C60.1104 31.768 60.1201 32.0859 59.2452 32.8959C56.3698 35.5578 53.4909 38.2139 50.6085 40.8642C42.9694 47.8851 35.354 54.9432 27.6696 61.8954C25.1037 64.2175 22.3625 66.2673 19.6962 68.4319C19.3971 68.6748 19.0619 68.8559 18.7448 69.0655L18.4529 68.9096Z" fill="#FFC42E"/>
<path d="M48.5522 49.0517L48.1792 49.0494C48.1896 47.1936 48.1744 45.3367 48.177 43.4809L44.9915 45.9192C44.8389 50.4023 44.6888 54.8853 44.5413 59.3681C44.5178 60.0658 44.512 60.7645 44.5143 61.463C44.5181 62.6734 45.2776 63.3353 46.7332 63.3024C48.1287 63.2708 48.6975 62.5295 48.6814 61.4397C48.6358 58.2987 48.5798 55.1577 48.5385 52.0167C48.5256 51.0277 48.5466 50.0399 48.5522 49.0517Z" fill="#FFC42E"/>
<path d="M43.6765 33.982C45.2157 34.8452 45.3376 36.1671 45.2865 37.5601C45.2714 37.9723 45.2583 38.3845 45.2433 38.7967L48.3205 37.236C48.3244 37.1605 48.3267 37.0847 48.3312 37.0092C48.4532 35.8328 49.0844 34.7329 50.1097 33.9099C54.7642 30.4465 55.7235 23.3441 51.8846 19.244C48.9133 16.0705 44.3781 16.1202 41.6129 19.3627C38.0573 23.5328 38.7308 31.2078 43.6765 33.982ZM50.7391 21.8275C52.5744 24.3165 52.5444 27.6251 50.6954 29.605L50.7391 21.8275Z" fill="#FFC42E"/>
<path d="M61.7027 21.2518L61.6454 31.2152L60.851 31.2122C60.7155 28.0104 60.5799 24.8086 60.4442 21.6068L59.9354 21.5941L59.8799 31.2545L58.9867 31.2547L59.0429 21.4695L58.2004 21.46L58.1444 31.1908L57.3517 31.1999L57.4072 21.5472L56.5731 21.5272L56.5173 31.2318L55.5257 31.2433L55.5833 21.2358L54.709 21.1949C54.6303 21.9589 54.513 22.7214 54.4801 23.4872C54.351 26.453 54.2037 29.4193 54.1651 32.3865C54.1533 33.2623 54.1843 34.3362 54.688 34.9891C58.3433 39.727 57.6122 45.0551 57.1241 50.2989C56.67 55.1758 55.841 60.0208 55.2596 64.8885C54.9825 67.2006 56.1874 68.6299 58.2414 68.6991C60.3686 68.7714 61.725 67.2715 61.4681 64.9113C60.9377 60.0371 60.1161 55.1829 59.795 50.2993C59.5598 46.7218 59.8604 43.1063 60.0824 39.5162C60.1796 38.5467 60.5775 37.6249 61.2275 36.8635C62.8181 35.0056 63.0343 32.9432 62.9507 30.6831C62.8347 27.5467 62.9532 24.4028 62.9713 21.2619L61.7027 21.2518ZM57.4973 53.5825L57.7549 53.5256L57.6751 67.4062C56.2219 66.9624 55.7847 66.2265 55.9564 65.0186C56.4976 61.2101 56.9874 57.3951 57.4973 53.5825Z" fill="#FFC42E"/>
<path d="M45.0481 66.1998C37.5394 66.1316 30.0304 66.0896 22.5211 66.0737C21.8426 66.4796 21.1643 66.8857 20.4917 67.2978C20.2483 67.4471 19.9748 67.559 19.7151 67.6884L19.4737 67.5967C19.6235 67.0998 19.728 66.5866 19.8933 66.0954C19.1264 66.143 18.3511 66.2582 18.1048 66.492C16.1554 68.3356 14.4738 70.2693 12.5334 72.3511C33.5783 72.4777 54.0737 72.6058 74.5694 72.702C75.198 72.7058 76.1257 72.4739 76.4078 72.1911C78.2368 70.3585 79.9253 68.4812 81.8231 66.4421L60.2328 66.3122C60.1491 67.7072 59.1382 68.5605 57.6532 68.5127C56.2209 68.4666 55.3084 67.6432 55.2563 66.2823L45.0489 66.2209L45.0481 66.1998Z" fill="#FFC42E"/>
</svg>
